COSMETIC_dedrift_NOT_METROLOGICALLY_VALID
# WARNING: cosmetic drift-bounding for visualisation only.
# These joint angles are NOT accurate. Do not analyse, report, or publish.
version=1
nRows=21
nColumns=40
inDegrees=yes
endheader
time	pelvis_tilt	pelvis_list	pelvis_rotation	pelvis_tx	pelvis_ty	pelvis_tz	hip_flexion_r	hip_adduction_r	hip_rotation_r	knee_angle_r	knee_angle_r_beta	ankle_angle_r	subtalar_angle_r	mtp_angle_r	hip_flexion_l	hip_adduction_l	hip_rotation_l	knee_angle_l	knee_angle_l_beta	ankle_angle_l	subtalar_angle_l	mtp_angle_l	lumbar_extension	lumbar_bending	lumbar_rotation	arm_flex_r	arm_add_r	arm_rot_r	elbow_flex_r	pro_sup_r	wrist_flex_r	wrist_dev_r	arm_flex_l	arm_add_l	arm_rot_l	elbow_flex_l	pro_sup_l	wrist_flex_l	wrist_dev_l
463.875	-0.180436	4.343748	120.000000	0.000000	0.940000	0.000000	30.985049	10.355595	-22.995513	10.254717	0.178979	35.938092	0.000000	0.000000	13.042548	0.706564	-13.208783	15.000000	0.319394	3.636060	0.000000	0.000000	3.673578	-0.833732	9.133281	-6.402898	-2.627854	6.854564	0.000000	44.999996	0.000000	0.000000	-2.547194	11.740896	25.691794	3.178253	44.999996	0.000000	0.000000
463.9	0.505825	3.050416	120.000000	0.000000	0.940000	0.000000	24.924452	8.839157	-19.934631	10.905774	0.190342	33.850267	0.000000	0.000000	10.978966	2.516070	-16.594544	15.000000	0.361163	-1.131671	0.000000	0.000000	2.617756	-0.548823	8.600872	-7.513419	-3.188677	5.412590	0.000000	44.999996	0.000000	0.000000	-1.698454	10.367941	28.802876	4.250483	44.999996	0.000000	0.000000
463.925	0.922088	1.833523	120.000000	0.000000	0.940000	0.000000	18.423053	7.353173	-16.517781	11.369025	0.198427	32.974590	0.000000	0.000000	8.249273	4.730239	-21.005319	15.000000	0.396607	-10.588935	0.000000	0.000000	1.825351	-0.426183	8.450407	-8.173047	-3.431409	3.733019	0.000000	44.999996	0.000000	0.000000	-1.588024	10.066553	31.375786	4.136868	44.999996	0.000000	0.000000
463.95	0.939190	1.390426	120.000000	0.000000	0.940000	0.000000	17.033749	7.357678	-16.969024	12.924974	0.225583	35.301869	0.000000	0.000000	11.341714	4.493012	-25.857243	15.000000	0.521886	-21.120864	0.000000	0.000000	2.028715	-0.283435	7.155907	-8.345067	-3.438160	1.461105	0.000000	44.999996	0.000000	0.000000	-1.328061	10.683442	30.245898	2.710468	44.999996	0.000000	0.000000
463.975	0.792367	1.610262	120.000000	0.000000	0.940000	0.000000	16.218347	5.301850	-16.880844	14.378809	0.250958	36.499335	0.000000	0.000000	10.801513	4.036753	-30.575054	15.000000	0.594149	-27.382023	0.000000	0.000000	2.535971	-0.157694	5.738934	-7.953484	-3.228332	-1.912026	0.000000	44.999996	0.000000	0.000000	-1.394035	11.397213	29.154442	1.264525	44.999996	0.000000	0.000000
464	0.572118	1.923136	120.000000	0.000000	0.940000	0.000000	14.357484	4.565349	-17.055948	13.665493	0.238508	36.112991	0.000000	0.000000	11.816215	5.409483	-31.405790	15.000000	0.660707	-30.759223	0.000000	0.000000	2.715543	-0.119090	4.727595	-6.461512	-2.616182	-6.033084	0.000000	44.999996	0.000000	0.000000	-1.549130	11.215866	28.197910	0.914647	44.999996	0.000000	0.000000
464.025	0.130809	3.000343	120.000000	0.000000	0.940000	0.000000	11.400597	2.588024	-15.681704	12.322246	0.215064	33.962661	0.000000	0.000000	8.477559	9.561899	-27.321557	15.000000	0.623231	-27.848904	0.000000	0.000000	3.288121	-0.393665	3.125959	-4.349226	-1.771879	-10.357743	0.000000	44.999996	0.000000	0.000000	-1.777059	10.284435	26.913082	0.843551	44.999996	0.000000	0.000000
464.05	0.671267	3.172893	120.000000	0.000000	0.940000	0.000000	11.930806	0.296926	-16.764674	12.838057	0.224066	32.260878	0.000000	0.000000	7.229951	12.044040	-23.910098	15.000000	0.639090	-23.091309	0.000000	0.000000	2.351665	-1.231965	0.215151	-1.787585	-0.675795	-13.544345	0.000000	44.999996	0.000000	0.000000	-1.918584	8.309318	24.731939	0.812687	44.999996	0.000000	0.000000
464.075	0.692698	2.651061	120.000000	0.000000	0.940000	0.000000	12.223986	0.112616	-15.295069	11.846283	0.206757	27.735578	0.000000	0.000000	5.088717	12.188688	-20.664767	15.000000	0.644088	-15.254108	0.000000	0.000000	1.374987	-1.315525	-1.561599	0.077787	-0.053938	-15.441791	0.000000	44.999996	0.000000	0.000000	-1.742712	6.570437	22.075709	0.825599	44.999996	0.000000	0.000000
464.1	0.764957	1.419604	120.000000	0.000000	0.940000	0.000000	9.578682	2.149587	-13.580708	9.587032	0.167325	24.709496	0.000000	0.000000	0.679252	11.658154	-14.392487	15.000000	0.588736	-8.293390	0.000000	0.000000	-0.114979	-0.738175	-4.892832	1.520919	0.759129	-14.812495	0.000000	44.999996	0.000000	0.000000	-0.432403	3.665840	19.067482	0.895203	44.999996	0.000000	0.000000
464.125	0.770908	0.066495	120.000000	0.000000	0.940000	0.000000	2.415578	4.415050	-9.082752	5.811133	0.101423	21.547659	0.000000	0.000000	-2.102665	11.098453	-9.973771	15.000000	0.523252	-3.451251	0.000000	0.000000	-1.393634	0.168429	-7.095205	2.000434	0.970569	-13.240533	0.000000	44.999996	0.000000	0.000000	0.801308	1.286436	14.822470	0.814179	44.999996	0.000000	0.000000
464.15	0.420723	-0.087893	120.000000	0.000000	0.940000	0.000000	0.687401	4.715128	-7.299341	3.384615	0.059073	17.737906	0.000000	0.000000	-4.152352	9.891357	-4.813471	15.000000	0.426318	0.607504	0.000000	0.000000	-1.557065	1.066941	-8.808413	0.556337	-0.202887	-10.496775	3.996343	44.999996	0.000000	0.000000	2.059921	-0.095939	11.322070	0.758269	44.999996	0.000000	0.000000
464.175	0.501813	-0.413118	120.000000	0.000000	0.940000	0.000000	-3.222945	4.585255	-1.151103	-2.712480	-0.047342	12.725545	0.000000	0.000000	-5.284804	8.545736	-1.025110	15.000000	0.333990	4.340001	0.000000	0.000000	-2.283148	1.611023	-10.272546	-0.063709	-1.335336	-7.486691	9.882702	44.999996	0.000000	0.000000	3.493484	-1.903866	7.167935	0.732745	44.999996	0.000000	0.000000
464.2	0.275766	-0.868694	120.000000	0.000000	0.940000	0.000000	-8.636541	3.765563	6.698834	-7.400967	-0.129171	6.185963	0.000000	0.000000	-6.283123	5.881208	2.059580	13.401830	0.233906	7.975780	0.000000	0.000000	-2.783620	2.028428	-11.962312	-0.253836	-1.965844	-4.710392	15.559745	44.999996	0.000000	0.000000	4.692396	-4.793178	1.973999	0.717440	44.999996	0.000000	0.000000
464.225	0.275766	-1.297291	120.000000	0.000000	0.940000	0.000000	-12.330726	1.611668	14.821285	-13.753970	-0.240052	-1.533376	0.000000	0.000000	-8.140415	2.305744	5.961975	6.552831	0.114368	11.470649	0.000000	0.000000	-3.487449	2.307801	-12.627470	-0.378950	-2.214113	-1.930611	20.909950	44.999996	0.000000	0.000000	5.683724	-7.017249	-4.033463	0.715919	44.999996	0.000000	0.000000
464.25	-0.429797	-1.182589	120.000000	0.000000	0.940000	0.000000	-14.804581	-2.819847	21.626748	-21.280258	-0.371411	-10.918421	0.000000	0.000000	-8.087578	-2.037863	9.411464	-1.867294	-0.032590	13.930121	0.000000	0.000000	-3.241175	2.543692	-12.878346	-0.835366	-2.237692	0.022100	26.270833	44.999996	0.000000	0.000000	6.134202	-9.199575	-7.365485	0.724253	44.999996	0.000000	0.000000
464.275	-2.065526	0.299796	120.000000	0.000000	0.940000	0.000000	-18.166848	-7.721288	29.847823	-29.145465	-0.508684	-18.488107	0.000000	0.000000	-5.334553	-6.025142	10.116845	-8.930808	-0.155872	15.621182	0.000000	0.000000	-0.843209	2.111158	-9.825177	-0.706956	-1.641687	1.495379	29.434781	44.999996	0.000000	0.000000	6.048799	-11.282617	-11.252938	0.734560	44.999996	0.000000	0.000000
464.3	-1.786346	0.271163	120.000000	0.000000	0.940000	0.000000	-21.199453	-12.121863	34.072333	-33.952220	-0.592578	-22.513406	0.000000	0.000000	-4.277695	-7.975102	12.973882	-14.283676	-0.249297	16.215669	0.000000	0.000000	-0.631782	1.265606	-8.548092	-0.246277	-0.083668	2.165914	30.237386	44.999996	0.000000	0.000000	5.643342	-13.350359	-12.694793	0.738101	44.999996	0.000000	0.000000
464.325	-1.427216	0.005169	120.000000	0.000000	0.940000	0.000000	-24.549256	-14.861039	38.278256	-36.190469	-0.631643	-28.884131	0.000000	0.000000	-3.031600	-9.204625	15.018738	-18.893328	-0.329751	14.529995	0.000000	0.000000	-0.601067	0.622023	-7.013791	1.005014	3.241179	1.737470	27.639507	44.999996	0.000000	0.000000	5.320387	-14.647486	-13.304635	0.733555	44.999996	0.000000	0.000000
464.35	-1.201263	0.155091	120.000000	0.000000	0.940000	0.000000	-26.624559	-15.235139	40.561301	-35.417718	-0.618156	-31.257050	0.000000	0.000000	-0.474785	-7.608990	18.841656	-21.197294	-0.369963	6.820946	0.000000	0.000000	0.013503	0.482223	-5.822932	1.157354	5.240666	0.925434	25.530371	44.999996	0.000000	0.000000	4.554058	-15.281867	-14.017659	0.738745	44.999996	0.000000	0.000000
464.375	-0.585256	0.599676	120.000000	0.000000	0.940000	0.000000	-28.944265	-14.192194	41.714635	-32.227418	-0.562475	-30.928009	0.000000	0.000000	1.708015	-2.386464	17.658499	-21.411452	-0.373700	-6.299019	0.000000	0.000000	0.742860	0.205189	-4.284952	0.813167	6.410856	0.359923	23.725264	44.999996	0.000000	0.000000	3.931329	-15.189085	-16.479081	0.751858	44.999996	0.000000	0.000000
